<?xml version="1.0" standalone="no"?>
<!DOCTYPE svg PUBLIC "-//W3C//DTD SVG 20010904//EN"
 "http://www.w3.org/TR/2001/REC-SVG-20010904/DTD/svg10.dtd">
<svg version="1.0" xmlns="http://www.w3.org/2000/svg"
 width="211.000000pt" height="218.000000pt" viewBox="0 0 211.000000 218.000000"
 preserveAspectRatio="xMidYMid meet">

<g transform="translate(0.000000,218.000000) scale(0.100000,-0.100000)"
fill="#000000" stroke="none">
<path d="M1065 1933 c-159 -127 -248 -293 -249 -468 -1 -79 3 -98 27 -150 36
-78 64 -105 232 -235 77 -59 150 -119 162 -132 60 -64 70 -187 27 -316 -26
-78 -52 -125 -34 -61 16 56 17 56 -62 43 -40 -7 -94 -10 -120 -7 -43 5 -48 4
-48 -13 0 -11 10 -40 23 -64 25 -51 54 -63 125 -53 l46 6 -21 -29 c-34 -47
-70 -76 -90 -72 -22 4 -79 96 -98 160 -7 25 -19 82 -25 125 -7 43 -14 88 -16
100 -2 12 -29 39 -61 62 -56 40 -58 40 -67 20 -17 -36 9 -253 40 -346 16 -45
25 -85 22 -89 -4 -3 -39 11 -80 32 -53 28 -97 63 -163 128 -101 102 -153 183
-192 301 -24 71 -27 96 -27 220 -1 158 9 205 74 340 35 73 110 175 130 175 4
0 1 -19 -8 -42 -8 -24 -17 -80 -20 -125 -6 -105 21 -194 88 -297 57 -85 107
-134 265 -256 66 -51 123 -99 128 -106 12 -20 99 -65 115 -59 22 8 12 127 -13
156 -11 12 -81 68 -155 124 -202 153 -252 214 -286 348 -21 80 -14 186 20 293
33 101 71 167 142 243 31 34 53 61 49 61 -22 0 -129 -37 -180 -63 -86 -43
-141 -82 -218 -156 -182 -175 -269 -382 -268 -640 1 -237 88 -446 255 -614
143 -143 320 -228 508 -243 l73 -6 60 44 c208 154 313 473 221 673 -34 75 -92
134 -241 245 -71 54 -140 108 -152 121 -71 78 -70 217 4 363 29 57 131 166
156 166 20 0 81 -91 103 -153 8 -23 18 -78 21 -122 l6 -81 66 -47 66 -47 3 57
c4 79 -14 207 -38 271 -27 71 -26 75 16 57 98 -41 247 -178 313 -288 136 -229
147 -477 31 -712 -41 -85 -135 -214 -146 -203 -2 2 8 39 21 81 44 137 31 272
-37 414 -40 83 -146 193 -300 311 -91 70 -109 89 -119 123 -19 62 -99 95 -115
47 -12 -38 -8 -127 7 -155 8 -14 68 -67 134 -117 270 -203 318 -279 319 -501
0 -86 -5 -126 -23 -185 -36 -119 -100 -229 -179 -313 l-36 -37 54 16 c273 80
501 299 591 569 102 302 30 626 -191 868 -137 150 -353 259 -540 274 l-75 6
-50 -40z"/>
<path d="M1168 1726 c-20 -15 -88 -105 -88 -117 0 -5 41 -9 91 -9 69 0 90 3
87 13 -3 6 -13 35 -22 63 -18 54 -40 70 -68 50z"/>
<path d="M1453 1583 c8 -63 16 -85 38 -113 21 -25 29 -45 29 -75 0 -37 5 -45
64 -97 l63 -57 6 102 c3 70 1 112 -8 133 -21 51 -162 184 -196 184 -3 0 -1
-35 4 -77z"/>
<path d="M590 860 c0 -84 4 -129 14 -148 29 -56 185 -186 203 -168 3 2 0 38
-7 78 -10 59 -19 80 -46 111 -30 33 -34 43 -34 96 l0 58 -59 47 c-33 25 -62
46 -65 46 -3 0 -6 -54 -6 -120z"/>
</g>
</svg>
