<svg xmlns="http://www.w3.org/2000/svg" viewBox="0 0 24 24" width="100%" height="100%">
  <circle cx="12" cy="12" r="10" fill="#1DB954" />
  <path fill="#FFFFFF" d="M16.586 16.424c-.18.295-.565.387-.86.207-2.377-1.454-5.37-1.783-8.894-.98-.336.075-.668-.135-.744-.47-.077-.336.134-.668.47-.744 3.856-.88 7.15-.5 9.822 1.13.295.178.387.563.206.857zm1.225-2.72c-.227.367-.707.487-1.074.26-2.72-1.672-6.87-2.157-10.08-1.182-.413.125-.85-.107-.975-.52-.125-.413.107-.85.52-.975 3.67-1.114 8.24-.57 11.35 1.344.366.226.486.706.26 1.073zm.107-2.827C14.402 8.81 8.563 8.618 5.166 9.65c-.525.16-1.082-.14-1.24-.663-.16-.524.14-1.082.663-1.24 3.9-1.185 10.35-.964 14.4 1.44.473.28.627.893.347 1.367-.28.473-.893.627-1.367.347z"/>
</svg>
